# xmcd CD database file
# Copyright (C) 1993-1998 Ti Kan
# 
# Track frame offsets:
#     150
#     21132
#     39747
#     57185
#     74450
#     94127
#     111155
#     130287
#     151337
#     164402
#     206900
#     222680
#     240060
#     254782
#     267452
#     283092
# 
# Disc length: 4022 seconds
# 
# Revision: 1
# Processed by: cddbd v1.4b41PL1 Copyright (c) Steve Scherf et al.
# Submitted via: DiscPlay 4.0.4
# 
DISCID=fa0fb410
DTITLE=Varios Interpretes - Las Tropicalientes del Verano
DYEAR=1900
DGENRE=
TTITLE0=Levantando las manos
TTITLE1=Amigo m o
TTITLE2=Quincia era
TTITLE3=Por amor
TTITLE4=Ni un segundo dud 
TTITLE5=No pienses mal
TTITLE6=Se le moja la canoa
TTITLE7=Chica Vasilona - cachete, pechito y ombligo
TTITLE8=Saca la remera
TTITLE9=Pupurri de cumbias
TTITLE10=Morir de amor
TTITLE11=Baila Baila
TTITLE12=Mar a
TTITLE13=Chica sexy
TTITLE14=ole ole
TTITLE15=La bombita
EXTD=
EXTT0=
EXTT1=
EXTT2=
EXTT3=
EXTT4=
EXTT5=
EXTT6=
EXTT7=
EXTT8=
EXTT9=
EXTT10=
EXTT11=
EXTT12=
EXTT13=
EXTT14=
EXTT15=
PLAYORDER=
